# xmcd
#
# Track frame offsets:
#	150
#	10691
#	22881
#	34086
#	45550
#	58173
#	70260
#	81881
#	92280
#	105052
#	118155
#	130986
#	143898
#	157107
#	174339
#	192003
#	210709
#	220599
#	235147
#	245266
#	257865
#	269514
#
# Disc length: 3851 seconds
#
# Revision: 1
# Processed by: cddbd v1.5.2PL0 Copyright (c) Steve Scherf et al.
# Submitted via: audiograbber 1.83.01
#
DISCID=260f0916
DTITLE=Lightnin' Hopkins (US) - Sings The Blues(1962) Lightnin' Hopkins (1959)
DYEAR=2018
DGENRE=Blues
TTITLE0=Sis' Boogie
TTITLE1=Come Back, Baby
TTITLE2=Daddy Will Be Home One Day
TTITLE3=Baby You're Not Going To Make A Fool Out Of Me
TTITLE4=Morning Blues
TTITLE5=Have To Let You Go
TTITLE6=Let Me Play With Your Poodle
TTITLE7=Down Baby
TTITLE8=Fast Mail Rambler
TTITLE9=Thinkin' And Worryin'
TTITLE10=Picture On The Wall
TTITLE11=You're Not Goin' To Worry My Life Anymore
TTITLE12=Penitentiary Blues
TTITLE13=Bad Luck And Trouble
TTITLE14=Come And Go With Me
TTITLE15=Trouble Stay 'Way From My Door
TTITLE16=See That My Grave Is Kept Clean
TTITLE17=Goin' Back To Florida
TTITLE18=Reminiscences Of Blind Lemon
TTITLE19=Fan It
TTITLE20=Tell Me Baby
TTITLE21=She's Mine
EXTD=
EXTT0=
EXTT1=
EXTT2=
EXTT3=
EXTT4=
EXTT5=
EXTT6=
EXTT7=
EXTT8=
EXTT9=
EXTT10=
EXTT11=
EXTT12=
EXTT13=
EXTT14=
EXTT15=
EXTT16=
EXTT17=
EXTT18=
EXTT19=
EXTT20=
EXTT21=
PLAYORDER=
